<svg xmlns="http://www.w3.org/2000/svg" xmlns:xlink="http://www.w3.org/1999/xlink" viewBox="0 0 414.16 138.81"><defs><style>.cls-1{fill:url(#linear-gradient);}.cls-2{fill:url(#linear-gradient-2);}.cls-3{fill:url(#linear-gradient-3);}.cls-4{font-size:43.41px;font-family:VAG-Rounded-Bold, VAG Rounded;font-weight:700;}.cls-4,.cls-6{fill:#2d2d2d;}.cls-5{font-size:33.71px;font-family:VAGRounded-Light, VAG Rounded;font-weight:300;}.cls-6{font-size:18.04px;font-family:NotoKufiArabic, Noto Kufi Arabic;}</style><linearGradient id="linear-gradient" x1="-411" y1="53.11" x2="-371.52" y2="76.84" gradientTransform="translate(442.02)" gradientUnits="userSpaceOnUse"><stop offset="0" stop-color="#ff8300"/><stop offset="0.23" stop-color="#ff7e00"/><stop offset="0.5" stop-color="#ff7000"/><stop offset="0.79" stop-color="#ff5900"/><stop offset="0.96" stop-color="#ff4700"/></linearGradient><linearGradient id="linear-gradient-2" x1="-308.89" y1="89.34" x2="-341.75" y2="67.18" gradientTransform="translate(442.02)" gradientUnits="userSpaceOnUse"><stop offset="0" stop-color="#51aa1a"/><stop offset="0.48" stop-color="#51ba1a"/><stop offset="0.88" stop-color="#51c21a"/></linearGradient><linearGradient id="linear-gradient-3" x1="-242.79" y1="102.39" x2="-276.36" y2="80.59" gradientTransform="translate(442.02)" gradientUnits="userSpaceOnUse"><stop offset="0" stop-color="#0068f8"/><stop offset="0.26" stop-color="#0075f8"/><stop offset="0.64" stop-color="#0082f8"/><stop offset="1" stop-color="#0086f8"/></linearGradient></defs><g id="Layer_2" data-name="Layer 2"><g id="Layer_1-2" data-name="Layer 1"><path class="cls-1" d="M4.69,97.06,64.34,10.51q5.53-8,13.45-10A18.17,18.17,0,0,1,93,3.61a19.26,19.26,0,0,1,6.86,8.07,18.85,18.85,0,0,1,1.38,10.37,24.89,24.89,0,0,1-4.4,10.85L37.17,119.45a24.9,24.9,0,0,1-8.58,8,18.67,18.67,0,0,1-10.24,2.37,19.37,19.37,0,0,1-9.92-3.51,18.17,18.17,0,0,1-8.28-13.1C-.51,107.79,1,102.42,4.69,97.06Z"/><path class="cls-2" d="M80.34,97.06l40.24-60q5.55-8,13.46-10t15.18,3.07a19.26,19.26,0,0,1,6.86,8.07,18.77,18.77,0,0,1,1.38,10.37,24.9,24.9,0,0,1-4.39,10.86l-40.24,60a25,25,0,0,1-8.58,8A18.69,18.69,0,0,1,94,129.79a19.37,19.37,0,0,1-9.93-3.51q-7.26-5-8.27-13.1T80.34,97.06Z"/><path class="cls-3" d="M155.66,97.06l21.08-33.53q5.53-8,13.45-10a18.14,18.14,0,0,1,15.18,3.07,19.13,19.13,0,0,1,6.87,8.06,18.88,18.88,0,0,1,1.38,10.37,24.88,24.88,0,0,1-4.4,10.86l-21.07,33.53a25,25,0,0,1-8.58,8,18.69,18.69,0,0,1-10.24,2.37,19.37,19.37,0,0,1-9.93-3.51q-7.26-5-8.27-13.1T155.66,97.06Z"/><text class="cls-4" transform="translate(243.64 62.95)">MUSCAT<tspan class="cls-5"><tspan x="0" y="32.99">TRAINING</tspan><tspan x="0" y="65.99">INSTITUTE</tspan></tspan></text><text class="cls-6" transform="translate(242.11 21.67)">بيردتلل طقسم دهعم</text></g></g></svg>